<?xml version="1.0" encoding="UTF-8" standalone="no"?>
<svg
   xmlns:dc="http://purl.org/dc/elements/1.1/"
   xmlns:cc="http://creativecommons.org/ns#"
   xmlns:rdf="http://www.w3.org/1999/02/22-rdf-syntax-ns#"
   xmlns:svg="http://www.w3.org/2000/svg"
   xmlns="http://www.w3.org/2000/svg"
   viewBox="0 0 386.50213 274.49615"
   height="274.49615"
   width="386.50214"
   id="svg2"
   version="1.1">
  <metadata
     id="metadata8">
    <rdf:RDF>
      <cc:Work
         rdf:about="">
        <dc:format>image/svg+xml</dc:format>
        <dc:type
           rdf:resource="http://purl.org/dc/dcmitype/StillImage" />
        <dc:title></dc:title>
      </cc:Work>
    </rdf:RDF>
  </metadata>
  <defs
     id="defs6" />
  <g
     transform="translate(-0.35336756,-0.33715472)"
     id="g833">
    <path
       id="path839"
       d="m 248.40609,267.61825 c 0.31135,-0.0811 0.74335,-0.0758 0.96,0.0119 0.21665,0.0877 -0.0381,0.15404 -0.56609,0.14752 -0.528,-0.007 -0.70526,-0.0782 -0.39391,-0.15937 z m -2.88,-0.32 c 0.31135,-0.0811 0.74335,-0.0758 0.96,0.0119 0.21665,0.0877 -0.0381,0.15404 -0.56609,0.14752 -0.528,-0.007 -0.70526,-0.0782 -0.39391,-0.15937 z M 275.36,255.71273 c -1.57229,-0.75894 -3.16546,-2.17871 -8.79721,-7.83975 l -6.87721,-6.91297 h -66.39363 -66.39364 l -7.04915,7.02131 c -4.99345,4.97373 -7.4691,7.21135 -8.48916,7.67297 -1.41081,0.63845 -1.97518,0.65181 -27.84,0.65877 l -26.4,0.007 v -6.55996 -6.55997 l 24.310842,-1.1e-4 24.310848,-1.1e-4 7.04915,-7.02131 c 4.99345,-4.97373 7.4691,-7.21136 8.48916,-7.67298 1.43465,-0.64923 1.70299,-0.65166 72.16,-0.65166 68.47159,0 70.76069,0.0191 72,0.59981 0.80536,0.37738 3.94888,3.28197 8.47733,7.83297 l 7.19734,7.23317 24.48266,6.4e-4 24.48267,6.4e-4 v 6.55939 6.55938 l -26.4,-3.2e-4 -26.4,-3.2e-4 -1.92,-0.92677 z M 51.84,231.05212 c 0,-0.56486 -5.738483,-6.31936 -7.537034,-7.55806 l -1.773622,-1.22155 20.575328,-20.61001 c 15.2148,-15.24045 20.950493,-20.7888 22.015328,-21.29625 1.435536,-0.68412 1.530765,-0.68651 30.72,-0.77224 l 29.28,-0.086 11.41224,-11.40459 11.41225,-11.40459 2.55596,2.7002 c 1.40577,1.48511 3.65283,3.48465 4.99345,4.44342 l 2.4375,1.74323 -12.8857,12.89212 c -11.51288,11.51862 -13.06596,12.95978 -14.5777,13.52717 -1.64179,0.61619 -2.54889,0.63504 -30.561,0.63504 H 91.038016 L 71.68,212.00001 c -10.646909,10.648 -19.466464,19.36 -19.599008,19.36 -0.132547,0 -0.240992,-0.13855 -0.240992,-0.30789 z m 263.68,-19.05211 -19.35802,-19.36 H 267.293 c -28.012,0 -28.91922,-0.0188 -30.561,-0.63504 -1.51127,-0.5672 -3.05774,-2.00147 -14.47792,-13.42741 -7.03225,-7.03581 -12.72025,-12.83612 -12.64,-12.88957 3.82249,-2.54581 5.09811,-3.56413 7.33326,-5.85407 l 2.68866,-2.75456 11.222,11.21431 11.222,11.21432 29.28,0.086 c 29.18923,0.0857 29.28446,0.0881 30.72,0.77225 1.06486,0.50747 6.80344,6.05872 22.02784,21.30877 l 20.58784,20.62253 -1.60906,1.03253 c -1.62182,1.04073 -7.72662,7.13875 -7.72662,7.71805 0,0.17154 -0.10845,0.31188 -0.24099,0.31188 -0.13255,0 -8.9521,-8.712 -19.59901,-19.36 z M 128.64,25.760001 l -6.55414,-6.56 h 6.38452 6.38453 l 4.97254,-4.915815 c 4.63999,-4.5870519 5.11046,-4.9615719 7.03468,-5.6000001 l 2.06214,-0.6841856 45.61786,0.00703 c 45.19033,0.00696 45.63133,0.013133 47.05374,0.6583235 0.96037,0.4356129 3.08395,2.2877822 6.41255,5.5929722 l 4.97667,4.941678 h 5.90453 5.90452 l -6.55707,6.58399 -6.55707,6.583991 -1.73471,-0.193216 c -2.93998,-0.327461 -4.03629,-1.0734 -9.14129,-6.219838 l -4.796,-4.834927 h -42.0718 -42.0718 l -5.1322,5.088931 c -4.64859,4.609404 -5.29598,5.13709 -6.87028,5.600001 -0.95595,0.281087 -2.39726,0.511068 -3.20293,0.511068 h -1.46485 z"
       style="fill:#9ecdf3;stroke-width:0.31999999" />
    <path
       id="path837"
       d="m 19.2004,173.57809 c -3.52e-4,-39.82154 0.05335,-44.68472 0.510668,-46.24001 0.462911,-1.5743 0.990598,-2.22168 5.6,-6.87027 L 30.4,115.33561 V 103.20072 91.065831 L 25.631532,86.252915 C 19.459276,80.023129 19.84,81.247897 19.84,67.621922 v -10.34192 h 5.56 c 3.058,0 6.01,-0.09 6.56,-0.2 l 1,-0.2 v 8.907088 8.907086 l 4.771018,4.812915 c 4.370937,4.409318 4.814649,4.963926 5.291334,6.613789 0.455578,1.576816 0.50895,3.806358 0.428982,17.92 -0.08992,15.87 -0.102112,16.13891 -0.788726,17.39912 -0.383565,0.704 -2.867565,3.4382 -5.52,6.076 l -4.822608,4.796 2.14e-4,42.88401 2.18e-4,42.884 h -6.559816 -6.559817 l -3.84e-4,-44.50192 z m 342.47144,44.42235 -5.84816,-0.0949 0.0882,-22.95275 0.0882,-22.95275 0.85885,-1.44 c 0.47235,-0.792 3.82035,-4.39069 7.44,-7.99708 l 6.58115,-6.55707 v -18.07431 -18.07431 l -7.49053,-7.52862 c -6.17107,-6.20242 -7.55181,-7.75409 -7.83824,-8.80862 -0.23475,-0.86428 -0.34825,-8.606998 -0.34944,-23.839997 l -0.003,-22.560001 h 6.56 6.56 v 20.642791 20.642791 l 6.90112,6.877206 c 3.79559,3.78247 7.28759,7.52521 7.76,8.31721 l 0.85888,1.44 v 22.88001 22.88 l -0.85885,1.44 c -0.47235,0.792 -3.82035,4.39068 -7.44,7.99707 l -6.57974,6.55707 v 20.72293 20.72293 l -0.72,-0.0723 c -0.396,-0.0398 -3.35168,-0.11504 -6.56816,-0.16725 z M 150.01321,102.16 C 135.41607,87.549763 132.70649,84.695005 132.01744,83.200003 l -0.81119,-1.76 -0.003,-12.481578 L 131.2,56.476844 119.11844,44.398424 107.03688,32.320001 82.078442,32.320097 57.12,32.320196 v -6.559961 -6.55996 l 27.2,0.0069 c 25.92449,0.0066 27.26002,0.03504 28.48,0.607212 1.79704,0.842813 30.35165,29.495518 31.02875,31.135345 0.41349,1.001412 0.49125,3.204522 0.49125,13.918849 v 12.729124 l 16.34771,16.350016 16.3477,16.350019 -1.60891,1.03244 c -1.62174,1.04066 -7.7265,7.13868 -7.7265,7.71796 0,0.17153 -0.1085,0.31187 -0.24111,0.31187 -0.13261,0 -7.97417,-7.74 -17.42568,-17.2 z M 217.28,115.77142 c -1.496,-1.59846 -3.68048,-3.581 -4.8544,-4.40563 L 210.29119,109.86644 226.4256,93.73441 242.56,77.60238 V 64.870911 c 0,-10.716429 0.0778,-12.919764 0.49125,-13.921188 0.6771,-1.639827 29.23171,-30.292532 31.02875,-31.135345 1.22016,-0.572258 2.55903,-0.600644 28.64,-0.607212 l 27.36,-0.0069 v 6.55996 6.559961 l -25.12158,-9.9e-5 -25.12158,-9.7e-5 -12.07842,12.081559 -12.07842,12.081559 -0.003,12.478442 -0.003,12.478442 -0.8112,1.76 c -0.68852,1.49385 -3.36149,4.312634 -17.67574,18.639997 -9.2755,9.284 -16.93705,16.87049 -17.02567,16.85886 -0.0886,-0.0117 -1.38514,-1.32898 -2.88114,-2.92744 z"
       style="fill:#2094f1;stroke-width:0.31999999" />
    <path
       id="path835"
       d="M 19.956901,274.4022 C 15.212742,273.37044 11.47934,271.27427 7.6989709,267.51982 3.8734218,263.72051 1.827392,260.01683 0.74781011,254.937 0.04582956,251.63393 0.3159324,245.10408 1.279631,242.08001 c 2.7598797,-8.66045 9.474343,-14.98098 18.23647,-17.16656 3.610964,-0.90069 10.140321,-0.72221 13.603899,0.37187 8.814534,2.78434 15.421123,9.97145 17.29545,18.8152 0.602659,2.84357 0.583817,7.82472 -0.04113,10.87298 -1.983072,9.67268 -9.644989,17.40103 -19.274835,19.44196 -2.655345,0.56277 -8.526055,0.55578 -11.142587,-0.0132 z m 8.239422,-10.08705 c 2.622782,-0.49432 6.146522,-2.30751 7.908387,-4.06937 2.84425,-2.84425 4.788237,-8.07952 4.401562,-11.85367 -0.382346,-3.73193 -2.464589,-7.95153 -4.940835,-10.01245 -3.288563,-2.737 -8.612104,-4.27749 -12.282497,-3.55423 -3.023517,0.59578 -6.97282,2.64706 -8.583273,4.45817 -3.046971,3.42661 -4.579879,8.42667 -3.844677,12.54062 0.844736,4.72685 3.64414,8.70555 7.613932,10.82143 3.279265,1.74783 6.4366,2.28972 9.727401,1.6695 z M 355.9569,274.4022 c -4.74416,-1.03176 -8.47757,-3.12793 -12.25792,-6.88238 -3.82557,-3.79931 -5.87159,-7.50299 -6.95117,-12.58282 -0.70199,-3.30307 -0.43187,-9.83292 0.53181,-12.85699 2.7599,-8.66045 9.47436,-14.98098 18.23648,-17.16656 3.61097,-0.90069 10.14032,-0.72221 13.6039,0.37187 8.81453,2.78434 15.42112,9.97145 17.29546,18.8152 0.60265,2.84357 0.5838,7.82472 -0.0411,10.87298 -1.98308,9.67268 -9.645,17.40103 -19.27485,19.44196 -2.65536,0.56277 -8.52605,0.55578 -11.14259,-0.0132 z m 8.23942,-10.08705 c 2.62278,-0.49432 6.14653,-2.30751 7.90838,-4.06937 2.84426,-2.84425 4.78826,-8.07952 4.40157,-11.85367 -0.38233,-3.73193 -2.46457,-7.95153 -4.94083,-10.01245 -3.28858,-2.737 -8.6121,-4.27749 -12.2825,-3.55423 -3.02352,0.59578 -6.97283,2.64706 -8.58326,4.45817 -3.04698,3.42661 -4.5799,8.42667 -3.8447,12.54062 0.84473,4.72685 3.64416,8.70555 7.61395,10.82143 3.27926,1.74783 6.43661,2.28972 9.72739,1.6695 z M 188.2769,162.40219 c -4.74416,-1.03176 -8.47756,-3.12793 -12.25793,-6.88237 -3.82555,-3.79932 -5.87158,-7.50299 -6.95116,-12.58282 -0.70198,-3.30308 -0.43188,-9.83293 0.53182,-12.857 2.75988,-8.66044 9.47434,-14.98098 18.23647,-17.16655 3.61097,-0.9007 10.14032,-0.72222 13.6039,0.37186 8.81453,2.78435 15.42112,9.97146 17.29545,18.81521 0.60266,2.84357 0.58382,7.82472 -0.0411,10.87298 -1.98307,9.67267 -9.64499,17.40102 -19.27483,19.44196 -2.65535,0.56276 -8.52606,0.55577 -11.14259,-0.0132 z m 8.23942,-10.08705 c 2.62278,-0.49431 6.14652,-2.3075 7.90839,-4.06937 2.84425,-2.84425 4.78824,-8.07952 4.40156,-11.85366 -0.38234,-3.73193 -2.46459,-7.95154 -4.94083,-10.01245 -3.28857,-2.737 -8.61211,-4.27749 -12.2825,-3.55424 -3.02352,0.59579 -6.97282,2.64706 -8.58327,4.45818 -3.04697,3.4266 -4.57988,8.42667 -3.84468,12.54061 0.84473,4.72685 3.64414,8.70556 7.61393,10.82143 3.27927,1.74783 6.4366,2.28972 9.7274,1.6695 z M 19.956901,50.402187 C 15.212742,49.370427 11.47934,47.274258 7.6989709,43.519813 3.8734218,39.720497 1.827392,36.016824 0.74781011,30.936994 0.04582956,27.633917 0.3159324,21.104068 1.279631,18.080001 4.0395107,9.419552 10.753974,3.0990201 19.516101,0.91344682 23.127065,0.01274922 29.656422,0.19122834 33.12,1.2853076 c 8.814534,2.7843457 15.421123,9.9714574 17.29545,18.8152044 0.602659,2.843572 0.583817,7.824725 -0.04113,10.87298 -1.983072,9.672676 -9.644989,17.401028 -19.274835,19.441959 -2.655345,0.562768 -8.526055,0.55578 -11.142587,-0.01325 z m 8.239422,-10.087046 c 2.622782,-0.494317 6.146522,-2.307508 7.908387,-4.069373 2.84425,-2.84425 4.788237,-8.079516 4.401562,-11.853663 -0.382346,-3.731933 -2.464589,-7.951535 -4.940835,-10.012454 -3.288563,-2.736994 -8.612104,-4.277487 -12.282497,-3.554233 -3.023517,0.595786 -6.97282,2.647064 -8.583273,4.458173 -3.046971,3.426609 -4.579879,8.426673 -3.844677,12.540618 0.844736,4.726851 3.64414,8.705552 7.613932,10.821431 3.279265,1.747827 6.4366,2.289718 9.727401,1.669501 z M 355.9569,50.402187 c -4.74416,-1.03176 -8.47757,-3.127929 -12.25792,-6.882374 -3.82557,-3.799316 -5.87159,-7.502989 -6.95117,-12.582819 -0.70199,-3.303077 -0.43187,-9.832926 0.53181,-12.856993 2.7599,-8.660449 9.47436,-14.9809809 18.23648,-17.16655418 3.61097,-0.9006976 10.14032,-0.72221848 13.6039,0.37186078 8.81453,2.7843457 15.42112,9.9714574 17.29546,18.8152044 0.60265,2.843572 0.5838,7.824725 -0.0411,10.87298 -1.98308,9.672676 -9.645,17.401028 -19.27485,19.441959 -2.65536,0.562768 -8.52605,0.55578 -11.14259,-0.01325 z m 8.23942,-10.087046 c 2.62278,-0.494317 6.14653,-2.307508 7.90838,-4.069373 2.84426,-2.84425 4.78826,-8.079516 4.40157,-11.853663 -0.38233,-3.731933 -2.46457,-7.951535 -4.94083,-10.012454 -3.28858,-2.736994 -8.6121,-4.277487 -12.2825,-3.554233 -3.02352,0.595786 -6.97283,2.647064 -8.58326,4.458173 -3.04698,3.426609 -4.5799,8.426673 -3.8447,12.540618 0.84473,4.726851 3.64416,8.705552 7.61395,10.821431 3.27926,1.747827 6.43661,2.289718 9.72739,1.669501 z"
       style="fill:#1875d1;stroke-width:0.31999999" />
  </g>
</svg>
