<?xml version="1.0" encoding="UTF-8" standalone="no"?>
<svg
   xmlns:dc="http://purl.org/dc/elements/1.1/"
   xmlns:cc="http://creativecommons.org/ns#"
   xmlns:rdf="http://www.w3.org/1999/02/22-rdf-syntax-ns#"
   xmlns:svg="http://www.w3.org/2000/svg"
   xmlns="http://www.w3.org/2000/svg"
   viewBox="0 0 386.50354 386.50354"
   height="386.50354"
   width="386.50354"
   id="svg2"
   version="1.1">
  <metadata
     id="metadata8">
    <rdf:RDF>
      <cc:Work
         rdf:about="">
        <dc:format>image/svg+xml</dc:format>
        <dc:type
           rdf:resource="http://purl.org/dc/dcmitype/StillImage" />
        <dc:title></dc:title>
      </cc:Work>
    </rdf:RDF>
  </metadata>
  <defs
     id="defs6" />
  <path
     id="path827"
     d="m 25.097622,330.50762 c -2.940377,-0.01 -4.477233,-0.18252 -6.56,-0.73643 -1.496,-0.39787 -3.91943,-1.34898 -5.3854,-2.11359 -1.74961,-0.91255 -3.5339802,-2.20729 -5.1933943,-3.76835 -1.3903964,-1.30799 -3.1638326,-3.33799 -3.9409689,-4.51113 -0.7771363,-1.17313 -1.772401,-2.99697 -2.2116993,-4.05297 -0.4392984,-1.056 -1.04838883,-3.05174 -1.35353433,-4.43498 -0.4309004,-1.95329 -0.5218671,-3.48984 -0.4073074,-6.88 0.128805,-3.81171 0.2711586,-4.7204 1.12301873,-7.16861 0.536534,-1.54197 1.4601145,-3.62348 2.052401,-4.62556 0.5922867,-1.00209 2.2178451,-3.0218 3.612352,-4.48825 1.4329245,-1.50685 3.5201945,-3.27908 4.7999995,-4.0755 1.245493,-0.77507 3.632533,-1.87844 5.304533,-2.45193 2.659351,-0.91216 3.549142,-1.05875 7.106191,-1.17073 2.899422,-0.0913 4.827685,0.0206 6.72,0.38983 1.775444,0.34643 3.762804,1.0612 6.004427,2.15953 2.964652,1.45259 3.701974,1.9956 6.400764,4.71395 1.677578,1.68974 3.5344,3.89863 4.126266,4.90866 0.591866,1.01003 1.525427,3.09803 2.074582,4.64 0.963229,2.70466 0.998624,2.98989 1.003114,8.08359 0.0041,4.64954 -0.08487,5.56658 -0.745114,7.68 -0.412374,1.32 -1.33695,3.53239 -2.054614,4.91643 -0.866467,1.67101 -2.152963,3.41241 -3.829328,5.18338 -1.388467,1.46682 -3.466128,3.26164 -4.617021,3.9885 -1.150893,0.72685 -2.762297,1.60889 -3.580899,1.96008 -0.818602,0.3512 -2.640368,0.91497 -4.048368,1.25283 -1.815026,0.43553 -3.677461,0.6105 -6.4,0.60125 z m 0.96,-10.40968 c 1.056,-0.0753 2.822337,-0.43651 3.925192,-0.80267 1.102856,-0.36617 2.861214,-1.23738 3.907461,-1.93604 1.347283,-0.89968 2.311533,-1.89518 3.305059,-3.41218 0.771536,-1.17805 1.630557,-2.73027 1.908934,-3.44938 0.278381,-0.71912 0.671412,-2.21888 0.873405,-3.3328 0.275143,-1.51732 0.276035,-2.55385 0.0036,-4.13252 -0.200032,-1.15896 -0.858569,-3.13972 -1.463414,-4.4017 -0.606781,-1.26601 -1.739715,-2.93449 -2.52753,-3.72231 -0.785299,-0.7853 -2.088374,-1.81493 -2.895725,-2.28806 -0.80735,-0.47314 -2.224944,-1.12072 -3.15021,-1.43905 -0.925268,-0.31834 -2.558686,-0.68052 -3.629818,-0.80483 -1.380647,-0.16024 -2.539758,-0.0768 -3.982215,0.28673 -1.119085,0.28202 -2.938967,0.95346 -4.044182,1.49211 -1.105215,0.53864 -2.721143,1.69101 -3.590952,2.56082 -0.945774,0.94577 -2.026097,2.51154 -2.687604,3.89528 -0.608374,1.27259 -1.270863,3.23631 -1.472198,4.36382 -0.203516,1.13971 -0.267621,2.76578 -0.144367,3.66194 0.121934,0.88657 0.482198,2.3691 0.800588,3.29451 0.31839,0.92542 0.953769,2.32226 1.411953,3.10409 0.458185,0.78183 1.514444,2.05887 2.347243,2.83785 0.832798,0.77899 2.160073,1.78603 2.949499,2.23789 0.789426,0.45185 2.155319,1.04591 3.035319,1.32013 0.88,0.27423 1.96,0.56714 2.4,0.65094 0.44,0.0838 1.664,0.0907 2.72,0.0154 z m 335.199998,10.38991 c -2.024,-0.0181 -4.31718,-0.15783 -5.09594,-0.31062 -0.77878,-0.1528 -2.14678,-0.51491 -3.04,-0.8047 -0.89324,-0.2898 -2.74592,-1.1041 -4.11708,-1.80957 -1.5313,-0.78786 -3.40887,-2.13797 -4.86711,-3.49982 -1.30576,-1.21944 -2.86998,-2.89264 -3.476,-3.71824 -0.60605,-0.8256 -1.61971,-2.53286 -2.25261,-3.7939 -0.63286,-1.26105 -1.45433,-3.56474 -1.8255,-5.11933 -0.57114,-2.39212 -0.65258,-3.51503 -0.52998,-7.30652 0.1224,-3.78596 0.27932,-4.87659 1.01302,-7.04 0.4775,-1.408 1.46003,-3.568 2.18342,-4.8 0.72336,-1.232 2.40708,-3.36786 3.74151,-4.74635 1.33446,-1.37849 3.43427,-3.13396 4.66627,-3.90106 1.232,-0.76709 3.608,-1.86004 5.28,-2.42877 2.62506,-0.89292 3.59174,-1.05338 7.08211,-1.1756 2.96691,-0.10389 4.75447,9e-5 6.72,0.39088 1.71955,0.34187 3.83197,1.09176 5.90269,2.09537 2.47018,1.19723 3.8087,2.10829 5.72029,3.89347 1.37251,1.28179 3.19344,3.3244 4.04653,4.53914 0.85308,1.21474 1.97094,3.30758 2.48416,4.65077 0.51321,1.34318 1.11318,3.46948 1.33331,4.72511 0.25257,1.44098 0.3383,3.74236 0.23241,6.24 -0.13008,3.06829 -0.35532,4.53201 -1.00294,6.51704 -0.45933,1.408 -1.42304,3.61525 -2.14154,4.905 -0.71849,1.28975 -2.32441,3.41677 -3.56873,4.72671 -1.24432,1.30993 -3.21322,3.00846 -4.37533,3.77449 -1.16214,0.76604 -2.83296,1.70842 -3.71296,2.09417 -0.88,0.38576 -2.752,0.97897 -4.16,1.31826 -1.83024,0.44103 -3.60902,0.60753 -6.24,0.58407 z m 0.8,-10.38124 c 1.056,-0.0801 2.82234,-0.44518 3.92518,-0.81134 1.10288,-0.36617 2.84333,-1.22544 3.86772,-1.9095 1.13644,-0.75889 2.37584,-1.97552 3.17926,-3.12087 0.72419,-1.03242 1.60179,-2.60031 1.95018,-3.48421 0.34841,-0.88391 0.79721,-2.51007 0.99734,-3.61369 0.27418,-1.51211 0.27158,-2.55366 -0.0106,-4.22655 -0.20915,-1.24002 -0.86282,-3.19612 -1.48077,-4.43137 -0.60848,-1.21628 -1.74019,-2.84527 -2.51491,-3.61998 -0.77469,-0.77472 -2.06912,-1.79569 -2.87645,-2.26882 -0.80736,-0.47314 -2.22496,-1.12072 -3.15024,-1.43905 -0.92525,-0.31834 -2.55865,-0.68052 -3.62979,-0.80483 -1.38067,-0.16024 -2.53978,-0.0768 -3.98224,0.28673 -1.11907,0.28202 -2.93894,0.95346 -4.04416,1.49211 -1.10522,0.53864 -2.69008,1.65995 -3.52192,2.49179 -0.83184,0.83184 -1.97677,2.38356 -2.54422,3.44825 -0.56749,1.06469 -1.26365,2.92897 -1.54708,4.14284 -0.34425,1.4746 -0.44748,2.81572 -0.31107,4.0412 0.11232,1.0088 0.4752,2.62183 0.80643,3.58452 0.3312,0.96269 0.96653,2.37201 1.41181,3.13182 0.44528,0.75981 1.27898,1.86155 1.85264,2.44832 0.57367,0.58678 1.68195,1.50645 2.46285,2.04372 0.7809,0.53727 2.15338,1.25588 3.04992,1.59691 0.89658,0.34102 2.20611,0.74324 2.91011,0.89382 0.704,0.15057 2.144,0.20825 3.2,0.12818 z m -111.36,3.64415 c -0.64,0.009 -0.64,0.009 0,-0.26561 0.352,-0.15126 1,-0.27078 1.44,-0.26561 0.8,0.009 0.8,0.009 0,0.26561 -0.44,0.14091 -1.088,0.26044 -1.44,0.26561 z m -2.08,-0.35277 c -0.792,0 -1.116,-0.0624 -0.72,-0.13867 0.396,-0.0763 1.044,-0.0763 1.44,0 0.396,0.0763 0.072,0.13867 -0.72,0.13867 z m -2.72,-0.31354 c -0.704,-0.004 -0.95432,-0.0691 -0.55627,-0.14562 0.39805,-0.0765 0.97405,-0.0736 1.28,0.006 0.30595,0.0801 -0.0197,0.14272 -0.72373,0.13917 z m 57.63632,-10.79955 -26.59632,-2.6e-4 -1.92,-0.92677 c -1.57229,-0.75894 -3.16546,-2.17871 -8.79721,-7.83975 l -6.87721,-6.91297 h -66.39363 -66.39364 l -7.04915,7.02131 c -4.99345,4.97373 -7.4691,7.21135 -8.48916,7.67297 -1.41109,0.63858 -1.97392,0.65181 -28.036315,0.65869 l -26.596313,0.007 0.309273,-1.68 c 0.170099,-0.924 0.251984,-3.876 0.181959,-6.56 l -0.127312,-4.88 h 24.325196 24.325202 l 7.04915,-7.02131 c 4.99345,-4.97374 7.4691,-7.21137 8.48916,-7.67299 1.43465,-0.64923 1.70299,-0.65166 72.16,-0.65166 68.47159,0 70.76069,0.0191 72,0.59981 0.80536,0.37738 3.94888,3.28197 8.47733,7.83297 l 7.19734,7.23317 h 24.48277 24.48278 l -0.11084,4.88 c -0.0609,2.684 0.0275,5.636 0.19622,6.56 l 0.30704,1.68 z M 51.8152,287.00515 c -0.09042,0 -0.810871,-0.81033 -1.600992,-1.80072 -0.790122,-0.9904 -2.208909,-2.50672 -3.152861,-3.36959 -0.943952,-0.86288 -2.383952,-2.01988 -3.2,-2.57114 -0.816048,-0.55124 -1.549517,-1.05672 -1.629927,-1.12328 -0.08041,-0.0666 9.135588,-9.41841 20.48,-20.7819 15.253834,-15.27949 21.001268,-20.83963 22.066202,-21.34713 1.435446,-0.68407 1.532605,-0.68652 30.729678,-0.77426 l 29.28967,-0.088 11.47873,-11.48204 11.47872,-11.48205 1.53488,1.8369 c 0.84418,1.01029 2.2984,2.48268 3.2316,3.27197 0.93319,0.7893 2.41672,1.91655 3.29672,2.50502 0.88,0.58847 1.66567,1.12427 1.74593,1.19068 0.0803,0.0664 -5.67974,5.9493 -12.8,13.0731 -11.56888,11.57463 -13.12591,13.01991 -14.63793,13.58741 -1.64179,0.61619 -2.54889,0.63504 -30.561,0.63504 H 90.695638 l -19.358016,19.35999 c -10.646909,10.648 -19.432,19.36 -19.522422,19.36 z m 282.92463,0 c -0.11232,0 -8.9153,-8.712 -19.56221,-19.36 l -19.35802,-19.36 h -28.86898 c -28.012,0 -28.91922,-0.0188 -30.561,-0.63504 -1.51303,-0.56786 -3.04588,-1.99231 -14.492,-13.46718 -11.53748,-11.56645 -12.74026,-12.86892 -12.19436,-13.20496 0.33311,-0.20505 1.70111,-1.17433 3.04,-2.15395 1.3389,-0.97962 3.34125,-2.77197 4.44968,-3.983 l 2.01532,-2.20187 11.26468,11.25699 11.26468,11.25699 29.28,0.086 c 29.18923,0.0857 29.28446,0.0881 30.72,0.77225 1.06486,0.50747 6.80388,6.05916 22.02976,21.31068 l 20.58976,20.62444 -2.03782,1.45416 c -1.12084,0.79979 -3.00112,2.4753 -4.1785,3.72336 -1.17734,1.24805 -2.37827,2.63187 -2.6687,3.07515 -0.29047,0.44328 -0.62,0.80597 -0.73229,0.80597 z m -309.321592,-13.28 h -6.559817 l -3.84e-4,-44.50192 c -3.52e-4,-39.82154 0.05335,-44.68472 0.510669,-46.24001 0.462911,-1.5743 0.990597,-2.22168 5.6,-6.87027 l 5.088916,-5.1322 v -12.13489 -12.13489 l -4.768468,-4.81292 c -4.292164,-4.33217 -4.819563,-4.98652 -5.28,-6.55099 -0.422304,-1.4349 -0.511532,-3.54204 -0.511532,-12.08 v -10.34192 h 5.56 c 3.058,0 6.01,-0.09 6.56,-0.2 l 1,-0.2 v 8.90709 8.90708 l 4.771018,4.81292 c 4.370937,4.40932 4.814649,4.96392 5.291334,6.61379 0.455578,1.57681 0.50895,3.80636 0.428982,17.92 -0.08992,15.87 -0.102112,16.13891 -0.788726,17.39912 -0.383565,0.704 -2.867565,3.4382 -5.52,6.076 l -4.822608,4.796 2.14e-4,42.88401 2.18e-4,42.884 z m 342.479382,0.0877 c -0.396,-0.0398 -3.35168,-0.11504 -6.56816,-0.16725 l -5.84816,-0.0949 0.0882,-22.95275 c 0.0881,-22.95278 0.0881,-22.95278 0.94697,-24.39278 0.47235,-0.792 3.82035,-4.39069 7.44,-7.99708 l 6.58115,-6.55707 V 193.57671 175.5024 l -7.49053,-7.52862 c -6.17107,-6.20242 -7.55181,-7.75409 -7.83824,-8.80862 -0.23475,-0.86428 -0.34825,-8.607 -0.34944,-23.84 l -0.003,-22.56 h 6.56 6.56 v 20.64279 20.64279 l 6.90112,6.87721 c 3.79559,3.78247 7.28759,7.52521 7.76,8.31721 0.85888,1.44 0.85888,1.44 0.85888,24.32001 0,22.88 0,22.88 -0.85885,24.32 -0.47235,0.792 -3.82035,4.39068 -7.44,7.99707 l -6.57974,6.55707 v 20.72293 c 0,20.72293 0,20.72293 -0.72,20.65061 z m -174.32,-55.32499 c -2.024,-0.018 -4.31717,-0.15783 -5.09594,-0.31062 -0.77877,-0.15279 -2.14677,-0.5149 -3.04,-0.8047 -0.89323,-0.28979 -2.74592,-1.10409 -4.11708,-1.80957 -1.53129,-0.78786 -3.40886,-2.13797 -4.86712,-3.49982 -1.30575,-1.21943 -2.86996,-2.89264 -3.476,-3.71824 -0.60605,-0.8256 -1.61971,-2.53285 -2.25258,-3.79389 -0.63288,-1.26105 -1.45436,-3.56475 -1.82552,-5.11934 -0.57113,-2.39212 -0.65258,-3.51503 -0.52999,-7.30652 0.1224,-3.78596 0.27934,-4.87659 1.01302,-7.04 0.4775,-1.408 1.46004,-3.568 2.18342,-4.8 0.72339,-1.232 2.40707,-3.36785 3.74152,-4.74634 1.33445,-1.37849 3.43427,-3.13397 4.66627,-3.90106 1.232,-0.7671 3.608,-1.86004 5.28,-2.42878 2.62505,-0.89291 3.59174,-1.05338 7.08212,-1.1756 2.96689,-0.10388 4.75446,9e-5 6.72,0.39088 1.71953,0.34188 3.83196,1.09176 5.90267,2.09537 2.4702,1.19723 3.80872,2.10829 5.72029,3.89348 1.37252,1.28179 3.19346,3.3244 4.04654,4.53914 0.85308,1.21474 1.97095,3.30758 2.48416,4.65076 0.51321,1.34319 1.11319,3.46949 1.3333,4.72511 0.25259,1.44098 0.33831,3.74237 0.23242,6.24001 -0.13007,3.06829 -0.35533,4.53201 -1.00293,6.51704 -0.45934,1.408 -1.42304,3.61525 -2.14154,4.905 -0.7185,1.28975 -2.32444,3.41677 -3.56875,4.7267 -1.24431,1.30994 -3.21321,3.00846 -4.37533,3.7745 -1.16212,0.76604 -2.83295,1.70841 -3.71295,2.09417 -0.88,0.38575 -2.752,0.97897 -4.16,1.31826 -1.83024,0.44103 -3.60903,0.60753 -6.24,0.58406 z m 0.8,-10.38123 c 1.056,-0.0801 2.82234,-0.44518 3.92519,-0.81135 1.10286,-0.36616 2.84333,-1.22544 3.86772,-1.9095 1.13644,-0.75888 2.37584,-1.97552 3.17925,-3.12086 0.7242,-1.03242 1.60178,-2.60032 1.95018,-3.48422 0.34841,-0.8839 0.7972,-2.51006 0.99732,-3.61369 0.2742,-1.51211 0.2716,-2.55366 -0.0106,-4.22655 -0.20915,-1.24001 -0.8628,-3.19611 -1.48077,-4.43136 -0.60848,-1.21628 -1.74018,-2.84527 -2.5149,-3.61999 -0.77471,-0.77471 -2.06912,-1.79568 -2.87647,-2.26882 -0.80735,-0.47314 -2.22495,-1.12071 -3.15021,-1.43905 -0.92527,-0.31833 -2.55869,-0.68051 -3.62982,-0.80483 -1.38065,-0.16024 -2.53976,-0.0768 -3.98222,0.28673 -1.11908,0.28202 -2.93896,0.95347 -4.04418,1.49211 -1.10521,0.53865 -2.69008,1.65995 -3.52192,2.4918 -0.83184,0.83184 -1.97674,2.38355 -2.54422,3.44825 -0.56747,1.06469 -1.26365,2.92897 -1.54705,4.14283 -0.34428,1.47461 -0.44751,2.81572 -0.31107,4.04121 0.11231,1.00879 0.4752,2.62183 0.80641,3.58452 0.33122,0.96269 0.96653,2.372 1.41181,3.13181 0.44527,0.75981 1.27896,1.86156 1.85264,2.44833 0.57368,0.58677 1.68197,1.50644 2.46286,2.04371 0.7809,0.53728 2.15336,1.25588 3.04992,1.59691 0.89656,0.34103 2.2061,0.74325 2.9101,0.89382 0.704,0.15058 2.144,0.20826 3.2,0.12819 z m -27.31791,-33.10149 c -0.11237,0 -7.93737,-7.74 -17.38888,-17.2 -14.59714,-14.61024 -17.30672,-17.465 -17.99577,-18.96 -0.81119,-1.76 -0.81119,-1.76 -0.81431,-14.24158 l -0.003,-12.48158 -12.08156,-12.07842 -12.08156,-12.078418 H 81.539747 56.384992 l 0.309273,-1.68 c 0.170099,-0.924 0.251984,-3.876 0.181959,-6.56 l -0.127312,-4.88 27.214355,0.007 c 25.938373,0.007 27.274373,0.0352 28.494353,0.60735 0.85512,0.40105 6.13587,5.47076 15.90875,15.27297 10.02211,10.052178 14.78345,15.047298 15.12,15.862368 0.41349,1.00141 0.49125,3.20453 0.49125,13.91885 v 12.72913 l 16.34962,16.35193 16.34962,16.35193 -2.03769,1.45406 c -1.12073,0.79974 -3.00098,2.47521 -4.17834,3.72326 -1.17735,1.24806 -2.37828,2.63188 -2.66873,3.07516 -0.29045,0.44328 -0.62003,0.80596 -0.73239,0.80596 z m 69.51024,-17.21954 -16.91233,16.86046 -1.12,-1.44419 c -0.616,-0.7943 -1.95705,-2.22629 -2.98012,-3.18219 -1.02306,-0.95591 -2.73299,-2.33077 -3.79984,-3.05526 l -1.93973,-1.31724 16.19984,-16.20219 16.19985,-16.20218 V 120.5137 c 0,-10.71432 0.0778,-12.91743 0.49125,-13.91884 0.33655,-0.81507 5.09789,-5.81019 15.12,-15.862368 9.77288,-9.80221 15.05363,-14.87192 15.90875,-15.27297 1.22016,-0.57226 2.55908,-0.60065 28.64,-0.60726 l 27.36,-0.007 v 6.55996 6.55997 l -25.12158,-6e-5 -25.12158,-5e-5 -12.07842,12.081548 -12.07842,12.08156 -2.5e-4,12.47845 c -2.6e-4,12.47844 -2.6e-4,12.47844 -0.92767,14.39844 -0.80618,1.66902 -3.13813,4.12394 -17.83975,18.78046 z M 25.097622,106.50761 c -2.940377,-0.01 -4.477233,-0.18252 -6.56,-0.73644 -1.496,-0.39786 -3.91943,-1.34897 -5.3854,-2.11358 -1.74961,-0.91255 -3.5339802,-2.2073 -5.1933943,-3.768348 -1.3903964,-1.30799 -3.1638326,-3.338 -3.9409689,-4.51113 -0.7771363,-1.17313 -1.772401,-2.99697 -2.2116993,-4.05297 -0.4392984,-1.056 -1.04838883,-3.05174 -1.35353433,-4.43498 -0.4309004,-1.95329 -0.5218671,-3.48984 -0.4073074,-6.88 0.128805,-3.81171 0.2711586,-4.7204 1.12301873,-7.16861 0.536534,-1.54197 1.4601145,-3.62348 2.052401,-4.62556 0.5922867,-1.00209 2.2178451,-3.0218 3.612352,-4.48825 1.4329245,-1.50685 3.5201945,-3.27908 4.7999995,-4.0755 1.245493,-0.77507 3.632533,-1.87844 5.304533,-2.45194 2.659351,-0.91215 3.549142,-1.05874 7.106191,-1.17072 2.899422,-0.0913 4.827685,0.0206 6.72,0.38983 1.775444,0.34643 3.762804,1.0612 6.004427,2.15953 2.964652,1.45258 3.701974,1.9956 6.400764,4.71395 1.677578,1.68973 3.5344,3.89863 4.126266,4.90866 0.591866,1.01003 1.525427,3.09803 2.074582,4.64 0.963229,2.70466 0.998624,2.98989 1.003114,8.08359 0.0041,4.64953 -0.08487,5.56657 -0.745114,7.68 -0.412374,1.32 -1.33695,3.53239 -2.054614,4.91643 -0.866467,1.67101 -2.152963,3.41241 -3.829328,5.18338 -1.388467,1.466818 -3.466128,3.261638 -4.617021,3.988498 -1.150893,0.72685 -2.762297,1.60889 -3.580899,1.96008 -0.818602,0.3512 -2.640368,0.91497 -4.048368,1.25283 -1.815026,0.43553 -3.677461,0.6105 -6.4,0.60125 z m 0.96,-10.409678 c 1.056,-0.0753 2.822337,-0.43651 3.925192,-0.80267 1.102856,-0.36617 2.861214,-1.23739 3.907461,-1.93604 1.347283,-0.89968 2.311533,-1.89519 3.305059,-3.41218 0.771536,-1.17805 1.630557,-2.73027 1.908934,-3.44938 0.278381,-0.71912 0.671412,-2.21888 0.873405,-3.3328 0.275143,-1.51732 0.276035,-2.55385 0.0036,-4.13252 -0.200032,-1.15896 -0.858569,-3.13972 -1.463414,-4.4017 -0.606781,-1.26601 -1.739715,-2.93449 -2.52753,-3.72231 -0.785299,-0.7853 -2.088374,-1.81493 -2.895725,-2.28806 -0.80735,-0.47314 -2.224944,-1.12072 -3.15021,-1.43905 -0.925268,-0.31834 -2.558686,-0.68052 -3.629818,-0.80483 -1.380647,-0.16025 -2.539758,-0.0768 -3.982215,0.28673 -1.119085,0.28201 -2.938967,0.95346 -4.044182,1.49211 -1.105215,0.53864 -2.721143,1.69101 -3.590952,2.56082 -0.945774,0.94577 -2.026097,2.51154 -2.687604,3.89528 -0.608374,1.27259 -1.270863,3.23631 -1.472198,4.36382 -0.203516,1.13971 -0.267621,2.76578 -0.144367,3.66194 0.121934,0.88657 0.482198,2.3691 0.800588,3.29451 0.31839,0.92542 0.953769,2.32226 1.411953,3.10409 0.458185,0.78183 1.514444,2.05887 2.347243,2.83785 0.832798,0.77899 2.160073,1.78603 2.949499,2.23789 0.789426,0.45185 2.155319,1.04591 3.035319,1.32013 0.88,0.27423 1.96,0.56714 2.4,0.65094 0.44,0.0838 1.664,0.0907 2.72,0.0154 z M 361.25762,106.48784 c -2.024,-0.018 -4.31718,-0.15783 -5.09594,-0.31062 -0.77878,-0.1528 -2.14678,-0.51491 -3.04,-0.8047 -0.89324,-0.2898 -2.74592,-1.1041 -4.11708,-1.80957 -1.5313,-0.78786 -3.40887,-2.13797 -4.86711,-3.49982 -1.30576,-1.219438 -2.86998,-2.892638 -3.476,-3.718238 -0.60605,-0.8256 -1.61971,-2.53286 -2.25261,-3.7939 -0.63286,-1.26105 -1.45433,-3.56474 -1.8255,-5.11933 -0.57114,-2.39212 -0.65258,-3.51503 -0.52998,-7.30652 0.1224,-3.78596 0.27932,-4.87659 1.01302,-7.04 0.4775,-1.408 1.46003,-3.568 2.18342,-4.8 0.72336,-1.232 2.40708,-3.36786 3.74151,-4.74635 1.33446,-1.37849 3.43427,-3.13396 4.66627,-3.90106 1.232,-0.76709 3.608,-1.86004 5.28,-2.42877 2.62506,-0.89292 3.59174,-1.05338 7.08211,-1.1756 2.96691,-0.10389 4.75447,9e-5 6.72,0.39087 1.71955,0.34188 3.83197,1.09176 5.90269,2.09538 2.47018,1.19723 3.8087,2.10828 5.72029,3.89347 1.37251,1.28179 3.19344,3.3244 4.04653,4.53914 0.85308,1.21474 1.97094,3.30758 2.48416,4.65077 0.51321,1.34318 1.11318,3.46948 1.33331,4.72511 0.25257,1.44098 0.3383,3.74236 0.23241,6.24 -0.13008,3.06829 -0.35532,4.53201 -1.00294,6.51704 -0.45933,1.408 -1.42304,3.61525 -2.14154,4.905 -0.71849,1.28975 -2.32441,3.41677 -3.56873,4.72671 -1.24432,1.309928 -3.21322,3.008458 -4.37533,3.774488 -1.16214,0.76604 -2.83296,1.70842 -3.71296,2.09417 -0.88,0.38576 -2.752,0.97897 -4.16,1.31826 -1.83024,0.44103 -3.60902,0.60753 -6.24,0.58407 z m 0.8,-10.381238 c 1.056,-0.0801 2.82234,-0.44518 3.92518,-0.81134 1.10288,-0.36617 2.84333,-1.22544 3.86772,-1.9095 1.13644,-0.75889 2.37584,-1.97552 3.17926,-3.12087 0.72419,-1.03242 1.60179,-2.60031 1.95018,-3.48422 0.34841,-0.8839 0.79721,-2.51006 0.99734,-3.61368 0.27418,-1.51211 0.27158,-2.55366 -0.0106,-4.22655 -0.20915,-1.24002 -0.86282,-3.19612 -1.48077,-4.43137 -0.60848,-1.21628 -1.74019,-2.84527 -2.51491,-3.61998 -0.77469,-0.77472 -2.06912,-1.79569 -2.87645,-2.26882 -0.80736,-0.47314 -2.22496,-1.12072 -3.15024,-1.43905 -0.92525,-0.31834 -2.55865,-0.68052 -3.62979,-0.80483 -1.38067,-0.16025 -2.53978,-0.0768 -3.98224,0.28673 -1.11907,0.28201 -2.93894,0.95346 -4.04416,1.49211 -1.10522,0.53864 -2.69008,1.65995 -3.52192,2.49179 -0.83184,0.83184 -1.97677,2.38355 -2.54422,3.44825 -0.56749,1.06469 -1.26365,2.92897 -1.54708,4.14284 -0.34425,1.4746 -0.44748,2.81572 -0.31107,4.0412 0.11232,1.0088 0.4752,2.62183 0.80643,3.58452 0.3312,0.96269 0.96653,2.37201 1.41181,3.13182 0.44528,0.75981 1.27898,1.86155 1.85264,2.44832 0.57367,0.58678 1.68195,1.50645 2.46285,2.04372 0.7809,0.53727 2.15338,1.25588 3.04992,1.5969 0.89658,0.34103 2.20611,0.74325 2.91011,0.89383 0.704,0.15057 2.144,0.20825 3.2,0.12818 z m -225.74101,-8.14146 c -1.46485,0 -1.46485,0 -8.01899,-6.56 l -6.55414,-6.56 h 6.38452 6.38453 l 4.97254,-4.91582 c 4.63999,-4.58705 5.11046,-4.96157 7.03468,-5.6 2.06214,-0.68418 2.06214,-0.68418 47.68,-0.67715 45.19033,0.007 45.63133,0.0131 47.05374,0.65832 0.96037,0.43561 3.08395,2.28778 6.41255,5.59297 l 4.97667,4.94168 h 5.90453 5.90452 l -6.55707,6.58399 -6.55707,6.58399 -1.73471,-0.19322 c -0.95408,-0.10627 -2.32208,-0.46134 -3.04,-0.78906 -0.81048,-0.36997 -3.12334,-2.42865 -6.10129,-5.43077 l -4.796,-4.83493 h -42.0718 -42.0718 l -5.1322,5.08893 c -4.64859,4.6094 -5.29598,5.13709 -6.87028,5.6 -0.95595,0.28109 -2.39726,0.51107 -3.20293,0.51107 z"
     style="fill:#fefefe;stroke-width:0.31999999" />
</svg>
